<?xml version="1.0" ?><svg style="enable-background:new 0 0 48 48;" version="1.1" viewBox="0 0 48 48" xml:space="preserve" xmlns="http://www.w3.org/2000/svg" xmlns:xlink="http://www.w3.org/1999/xlink"><g id="Padding__x26__Artboard"/><g id="Icons"><g><g><path d="M24.07389,8.65623c-8.42518,0-15.26258,6.8373-15.26258,15.2786     c0,8.42518,6.8374,15.2787,15.26258,15.2787c8.4413,0,15.2787-6.85352,15.2787-15.2787     C39.35259,15.49353,32.51519,8.65623,24.07389,8.65623z" style="fill:#FFFFFF;"/><path d="M22.97313,10.99975c-7.74071,0-14.02262,6.28182-14.02262,14.03734     c0,7.74071,6.28191,14.03743,14.02262,14.03743c7.75552,0,14.03743-6.29673,14.03743-14.03743     C37.01056,17.28158,30.72865,10.99975,22.97313,10.99975z" style="fill:#B9D4F8;"/><path d="M24.07232,11.46307c-6.87471,0-12.45384,5.57904-12.45384,12.46691     c0,6.87471,5.57912,12.46699,12.45384,12.46699c6.88787,0,12.46699-5.59228,12.46699-12.46699     C36.53931,17.04211,30.96018,11.46307,24.07232,11.46307z" style="fill:#659BDB;"/></g><circle cx="23.98974" cy="19.95657" r="3.51444" style="fill:#FFFFFF;"/><circle cx="24.41202" cy="20.65218" r="2.73814" style="fill:#B9D4F8;"/><path d="M31.33847,31.55787H16.64389c0-4.05512,3.28617-7.34727,7.34731-7.34727    C28.04632,24.2106,31.33847,27.50275,31.33847,31.55787z" style="fill:#FFFFFF;"/><path d="M31.33847,31.55787H19.08013c0-3.47464,2.74135-6.29553,6.12919-6.29553    C28.59213,25.26233,31.33847,28.08323,31.33847,31.55787z" style="fill:#B9D4F8;"/><circle cx="23.99118" cy="24" r="15.34377" style="fill:none;stroke:#1B4A9A;stroke-width:0.7;stroke-linecap:round;stroke-linejoin:round;stroke-miterlimit:10;"/><path d="    M21.84037,11.49886c0.53679-0.0955,1.07644-0.1576,1.61342-0.18429" style="fill:none;stroke:#1B4A9A;stroke-width:0.7;stroke-linecap:round;stroke-linejoin:round;stroke-miterlimit:10;"/><path d="    M15.41549,14.68764c1.44125-1.2413,3.22635-2.35482,5.10565-2.8855" style="fill:none;stroke:#1B4A9A;stroke-width:0.7;stroke-linecap:round;stroke-linejoin:round;stroke-miterlimit:10;"/><circle cx="23.98974" cy="19.95657" r="3.51444" style="fill:none;stroke:#1B4A9A;stroke-width:0.7;stroke-linecap:round;stroke-linejoin:round;stroke-miterlimit:10;"/><path d="    M31.33847,31.55787H16.64389c0-4.05512,3.28617-7.34727,7.34731-7.34727C28.04632,24.2106,31.33847,27.50275,31.33847,31.55787z" style="fill:none;stroke:#1B4A9A;stroke-width:0.7;stroke-linecap:round;stroke-linejoin:round;stroke-miterlimit:10;"/></g></g></svg>